<?xml version="1.0" encoding="UTF-8"?>
<svg version="1.1" xmlns="http://www.w3.org/2000/svg" width="500" height="250">
<path d="M0 0 C165 0 330 0 500 0 C500 82.5 500 165 500 250 C335 250 170 250 0 250 C0 167.5 0 85 0 0 Z " fill="#EEEEEE" transform="translate(0,0)"/>
<path d="M0 0 C1.21410049 -0.00619858 2.42820099 -0.01239716 3.67909241 -0.01878357 C6.24007365 -0.02587001 8.80110108 -0.02272843 11.36206055 -0.01000977 C15.26893356 0.0038487 19.17340735 -0.03022991 23.08007812 -0.06835938 C25.57421933 -0.06931071 28.06836352 -0.067451 30.5625 -0.0625 C31.72418198 -0.07575821 32.88586395 -0.08901642 34.08274841 -0.10267639 C41.0133646 -0.02356434 46.100714 0.77976435 51.34765625 5.56640625 C53.66326302 9.03981641 53.60922255 10.4174784 53.63818359 14.51904297 C53.6509433 15.74396454 53.663703 16.96888611 53.67684937 18.23092651 C53.67990704 19.56931399 53.68213479 20.90770358 53.68359375 22.24609375 C53.69002173 23.61988464 53.69675009 24.99367415 53.70376587 26.36746216 C53.71574049 29.24744845 53.71944656 32.12731479 53.71826172 35.00732422 C53.71805862 38.69180024 53.7453495 42.37550415 53.77980614 46.05979729 C53.80208202 48.89775094 53.80609906 51.73551906 53.80504227 54.57355118 C53.80739764 55.93149601 53.81621773 57.289446 53.831707 58.64730453 C53.85137492 60.54976161 53.84300433 62.45244549 53.83349609 64.35498047 C53.83634613 65.43625214 53.83919617 66.5175238 53.84213257 67.63156128 C53.22520462 71.29318835 51.9022779 72.91745677 49.34765625 75.56640625 C45.87424609 77.88201302 44.4965841 77.82797255 40.39501953 77.85693359 C38.55763718 77.87607315 38.55763718 77.87607315 36.68313599 77.89559937 C35.34474851 77.89865704 34.00635892 77.90088479 32.66796875 77.90234375 C31.29417786 77.90877173 29.92038835 77.91550009 28.54660034 77.92251587 C25.66661405 77.93449049 22.78674771 77.93819656 19.90673828 77.93701172 C16.22226226 77.93680862 12.53855835 77.9640995 8.85426521 77.99855614 C6.01631156 78.02083202 3.17854344 78.02484906 0.34051132 78.02379227 C-1.01743351 78.02614764 -2.3753835 78.03496773 -3.73324203 78.050457 C-5.63569911 78.07012492 -7.53838299 78.06175433 -9.44091797 78.05224609 C-10.52218964 78.05509613 -11.6034613 78.05794617 -12.71749878 78.06088257 C-17.3291664 77.28388738 -19.75627886 74.80261556 -22.43774414 71.10327148 C-24.27356589 65.75743234 -24.100001 60.59117915 -24.0859375 54.9765625 C-24.09117935 53.75867538 -24.0964212 52.54078827 -24.1018219 51.28599548 C-24.10823478 48.71484132 -24.10691466 46.14365779 -24.09838867 43.57250977 C-24.08988104 39.64611386 -24.11864991 35.7211741 -24.15039062 31.79492188 C-24.15200286 29.29296918 -24.15142469 26.79101393 -24.1484375 24.2890625 C-24.15967148 23.11908218 -24.17090546 21.94910187 -24.18247986 20.7436676 C-24.12643924 14.16483578 -23.87553813 9.75189084 -19.65234375 4.56640625 C-13.59422347 -0.35116206 -7.57333086 -0.03227854 0 0 Z " fill="#C5B5D8" transform="translate(112.65234375,85.43359375)"/>
<path d="M0 0 C3.75375 -0.061875 7.5075 -0.12375 11.375 -0.1875 C12.55755371 -0.21481201 13.74010742 -0.24212402 14.95849609 -0.27026367 C15.88742676 -0.27775635 16.81635742 -0.28524902 17.7734375 -0.29296875 C18.72653809 -0.3086792 19.67963867 -0.32438965 20.66162109 -0.34057617 C21.81911865 -0.17199097 21.81911865 -0.17199097 23 0 C23.66 0.99 24.32 1.98 25 3 C25.61875 2.690625 26.2375 2.38125 26.875 2.0625 C30.53094336 0.23452832 32.72848981 -0.16215458 36.875 -0.1875 C37.92429687 -0.20167969 38.97359375 -0.21585937 40.0546875 -0.23046875 C42.93547071 -0.00504937 44.56240208 0.51035683 47 2 C46.34 3.32 45.68 4.64 45 6 C44.30132812 5.91621094 43.60265625 5.83242187 42.8828125 5.74609375 C41.97273438 5.64425781 41.06265625 5.54242188 40.125 5.4375 C39.22007812 5.33308594 38.31515625 5.22867188 37.3828125 5.12109375 C34.98346943 4.80325148 34.98346943 4.80325148 33 6 C33 7.98 33 9.96 33 12 C33.66 12.226875 34.32 12.45375 35 12.6875 C40.12827224 14.93111911 44.85855642 17.28783463 48 22 C48.43660384 25.30571478 48.71042728 27.81419387 46.94921875 30.75390625 C45.16506981 32.93804138 43.54181233 34.72909383 41 36 C38.01029711 36.08705146 35.04415045 36.11550145 32.0546875 36.09765625 C31.1696756 36.0962413 30.2846637 36.09482635 29.37283325 36.09336853 C26.54018809 36.0877614 23.70762136 36.07520771 20.875 36.0625 C18.95703239 36.05748592 17.03906354 36.05292285 15.12109375 36.04882812 C10.41400782 36.03863963 5.70709192 36.01906563 1 36 C0.67 24.12 0.34 12.24 0 0 Z " fill="#ECECEC" transform="translate(334,102)"/>
<path d="M0 0 C2.97 0 5.94 0 9 0 C10.68373628 3.99305046 12.34828178 7.99360015 14 12 C14.33 12.79277344 14.66 13.58554688 15 14.40234375 C16.45793055 18.05417941 17.37007086 21.05257754 17 25 C17.66 25 18.32 25 19 25 C19.103125 23.85402344 19.20625 22.70804688 19.3125 21.52734375 C19.88998446 16.91458494 21.29856245 12.86826058 23 8.5625 C23.27328125 7.84384766 23.5465625 7.12519531 23.828125 6.38476562 C25.84173387 1.15826613 25.84173387 1.15826613 27 0 C29.64 0 32.28 0 35 0 C35 11.88 35 23.76 35 36 C33.02 36 31.04 36 29 36 C28.505 24.12 28.505 24.12 28 12 C27.48050781 13.64871094 26.96101563 15.29742187 26.42578125 16.99609375 C25.72245299 19.14358936 25.01796576 21.29070563 24.3125 23.4375 C23.97283203 24.52611328 23.63316406 25.61472656 23.28320312 26.73632812 C22.93837891 27.77080078 22.59355469 28.80527344 22.23828125 29.87109375 C21.774823 31.30859985 21.774823 31.30859985 21.30200195 32.77514648 C20.87234131 33.50934814 20.44268066 34.2435498 20 35 C17.525 35.495 17.525 35.495 15 36 C12.36 28.74 9.72 21.48 7 14 C6.67 21.26 6.34 28.52 6 36 C4.02 36 2.04 36 0 36 C0 24.12 0 12.24 0 0 Z " fill="#343434" transform="translate(208,102)"/>
<path d="M0 0 C17 0 17 0 22 3 C24.35858628 5.35858628 24.36946499 6.07631948 24.5 9.3125 C24.4640847 12.09593574 24.395375 13.49888517 22.65625 15.703125 C21 17.0625 21 17.0625 18 19 C21.43165113 25.35409853 21.43165113 25.35409853 25.3125 31.4375 C27 34 27 34 27 36 C23.828125 36.46484375 23.828125 36.46484375 20 36 C17.7255818 33.84445119 16.2923611 31.27145589 14.75 28.5625 C13.91861866 27.16368815 13.0803626 25.76893305 12.234375 24.37890625 C11.87569336 23.7557251 11.51701172 23.13254395 11.14746094 22.49047852 C9.97590249 20.68151551 9.97590249 20.68151551 7 20 C7 25.28 7 30.56 7 36 C5.02 36 3.04 36 1 36 C0.67 24.12 0.34 12.24 0 0 Z " fill="#2E2E2E" transform="translate(278,102)"/>
<path d="M0 0 C1.4540625 0.0309375 1.4540625 0.0309375 2.9375 0.0625 C4.65048017 4.86658933 6.35937189 9.67210538 8.06445312 14.47900391 C8.64535534 16.11482195 9.22738247 17.75024096 9.81054688 19.38525391 C10.64747852 21.73236324 11.48038427 24.08086718 12.3125 26.4296875 C12.57498535 27.16307343 12.8374707 27.89645935 13.10791016 28.65206909 C14.9375 33.83475659 14.9375 33.83475659 14.9375 36.0625 C12.6275 36.0625 10.3175 36.0625 7.9375 36.0625 C5.90314469 32.33284861 4.9375 30.39344958 4.9375 26.0625 C0.9775 26.0625 -2.9825 26.0625 -7.0625 26.0625 C-7.3925 27.7125 -7.7225 29.3625 -8.0625 31.0625 C-8.69687344 32.7417238 -9.35539322 34.41258418 -10.0625 36.0625 C-11.7125 36.0625 -13.3625 36.0625 -15.0625 36.0625 C-14.49368475 31.19279229 -13.47383748 26.89782822 -11.8125 22.2890625 C-11.3690625 21.05285156 -10.925625 19.81664062 -10.46875 18.54296875 C-10.23800781 17.91052246 -10.00726563 17.27807617 -9.76953125 16.62646484 C-9.05763624 14.67416162 -8.3561936 12.71833483 -7.65625 10.76171875 C-3.79963271 0.07754352 -3.79963271 0.07754352 0 0 Z " fill="#333333" transform="translate(261.0625,101.9375)"/>
<path d="M0 0 C7.59 0 15.18 0 23 0 C23 1.65 23 3.3 23 5 C18.05 5 13.1 5 8 5 C8 8.3 8 11.6 8 15 C11.63 15 15.26 15 19 15 C19 16.65 19 18.3 19 20 C15.37 20 11.74 20 8 20 C8 23.63 8 27.26 8 31 C12.95 31 17.9 31 23 31 C23 32.65 23 34.3 23 36 C15.74 36 8.48 36 1 36 C0.67 24.12 0.34 12.24 0 0 Z " fill="#333333" transform="translate(334,102)"/>
<path d="M0 0 C1.89453125 1.53125 1.89453125 1.53125 3 3 C2.01 4.485 2.01 4.485 1 6 C-4.445 5.505 -4.445 5.505 -10 5 C-10.33 6.65 -10.66 8.3 -11 10 C-8.6507289 13.37310884 -4.73744178 14.8125919 -1.15625 16.62109375 C1.28439915 18.18187119 2.55245788 19.49339352 4 22 C4.61879779 26.7384653 3.56225105 30.21284853 0.8125 34.0625 C-4.1403921 37.58293801 -11.25928875 36.67747524 -17 36 C-17.99 35.34 -18.98 34.68 -20 34 C-19.67 32.35 -19.34 30.7 -19 29 C-18.13375 29.33 -17.2675 29.66 -16.375 30 C-12.40716321 31.17565535 -8.80955639 31.90477819 -5 30 C-4.58253392 27.12635209 -4.58253392 27.12635209 -5 24 C-7.0745356 22.3509288 -7.0745356 22.3509288 -10 21 C-11.43479777 20.00481132 -12.85066638 18.98196664 -14.25 17.9375 C-14.93578125 17.43089844 -15.6215625 16.92429687 -16.328125 16.40234375 C-19.06181728 14.10936354 -19.01767791 12.84594963 -19.4375 9.1875 C-19.34865319 5.70343564 -18.9964462 4.99512622 -16.8125 2 C-12.0638693 -1.37883338 -5.51830196 -0.88410712 0 0 Z " fill="#2F2F2F" transform="translate(201,102)"/>
<path d="M0 0 C2.3671875 1.02734375 2.3671875 1.02734375 4 2 C3.34 3.32 2.68 4.64 2 6 C0.95199219 5.87431641 0.95199219 5.87431641 -0.1171875 5.74609375 C-1.02726562 5.64425781 -1.93734375 5.54242188 -2.875 5.4375 C-3.77992188 5.33308594 -4.68484375 5.22867188 -5.6171875 5.12109375 C-8.01653057 4.80325148 -8.01653057 4.80325148 -10 6 C-10 7.98 -10 9.96 -10 12 C-9.34 12.226875 -8.68 12.45375 -8 12.6875 C-2.87172776 14.93111911 1.85855642 17.28783463 5 22 C5.43660384 25.30571478 5.71042728 27.81419387 3.94921875 30.75390625 C2.16506981 32.93804138 0.54181233 34.72909383 -2 36 C-4.31006744 36.1230891 -6.62418636 36.1755634 -8.9375 36.1875 C-10.18402344 36.20167969 -11.43054688 36.21585938 -12.71484375 36.23046875 C-16 36 -16 36 -19 34 C-18.67 32.35 -18.34 30.7 -18 29 C-17.13375 29.33 -16.2675 29.66 -15.375 30 C-11.98923609 31.00318931 -9.50361036 31.31143203 -6 31 C-5.01 30.34 -4.02 29.68 -3 29 C-2.87786106 26.65851769 -2.87786106 26.65851769 -4 24 C-5.8853335 22.52873508 -7.84977412 21.3805374 -9.92578125 20.1953125 C-13.17909967 18.32051883 -16.29721017 16.40557965 -18 13 C-18.79620853 6.06161137 -18.79620853 6.06161137 -15.75 2 C-11.17744427 -1.24892118 -5.33429896 -0.70579165 0 0 Z " fill="#2E2E2E" transform="translate(377,102)"/>
<path d="M0 0 C0.99 0.33 1.98 0.66 3 1 C2.625 2.9375 2.625 2.9375 2 5 C1.01 5.495 1.01 5.495 0 6 C-0.66 5.67 -1.32 5.34 -2 5 C-4.3329866 4.95977609 -6.66706666 4.95679753 -9 5 C-9.41780879 7.37305578 -9.41780879 7.37305578 -9 10 C-6.90630368 11.5769016 -6.90630368 11.5769016 -4 13 C3.44981501 17.22752903 3.44981501 17.22752903 4.6875 21.21484375 C4.92096689 25.59964382 4.39915688 27.49580184 1.625 31 C-2.03339137 33.7873458 -3.82765368 34.15702181 -8.375 34.1875 C-9.33148438 34.20167969 -10.28796875 34.21585938 -11.2734375 34.23046875 C-14.03010017 33.99745572 -15.64947395 33.40920164 -18 32 C-17.34 30.35 -16.68 28.7 -16 27 C-14.9790625 27.5259375 -14.9790625 27.5259375 -13.9375 28.0625 C-10.2912211 29.22620603 -7.71510022 28.72845102 -4 28 C-3.16060731 25.2607041 -3.16060731 25.2607041 -4 22 C-6.39524027 20.20026146 -8.85305425 18.85428398 -11.51953125 17.4921875 C-14.15442747 15.90710032 -15.44023385 14.62989697 -17 12 C-17.61233721 7.7901817 -17.43736375 5.73414629 -15.25 2.0625 C-10.37035043 -1.03420069 -5.63492003 -0.56188661 0 0 Z " fill="#FBFAFC" transform="translate(135,107)"/>
<path d="M0 0 C9.24 0 18.48 0 28 0 C28 1.65 28 3.3 28 5 C24.37 5 20.74 5 17 5 C17 15.23 17 25.46 17 36 C14.69 36 12.38 36 10 36 C10 25.77 10 15.54 10 5 C6.7 5 3.4 5 0 5 C0 3.35 0 1.7 0 0 Z " fill="#323232" transform="translate(304,102)"/>
<path d="M0 0 C8.91 0 17.82 0 27 0 C27 1.65 27 3.3 27 5 C23.7 5 20.4 5 17 5 C17 15.23 17 25.46 17 36 C14.69 36 12.38 36 10 36 C10 25.77 10 15.54 10 5 C6.7 5 3.4 5 0 5 C0 3.35 0 1.7 0 0 Z " fill="#2F2F2F" transform="translate(383,102)"/>
<path d="M0 0 C2.64 0 5.28 0 8 0 C8 11.88 8 23.76 8 36 C6.02 36 4.04 36 2 36 C1.67 28.08 1.34 20.16 1 12 C0.2575 14.124375 -0.485 16.24875 -1.25 18.4375 C-2.515625 22.05859375 -2.515625 22.05859375 -4 25 C-6.171875 25.91015625 -6.171875 25.91015625 -8 26 C-7.73753444 18.65096445 -5.4592447 5.4592447 0 0 Z " fill="#2B2B2B" transform="translate(235,102)"/>
<path d="M0 0 C5.47570437 0.48672928 5.47570437 0.48672928 7.671875 2.63671875 C9.86878271 6.54592217 9.42123426 10.6071588 9.49609375 15.00390625 C9.70708946 18.11209355 9.70708946 18.11209355 12.03515625 19.90234375 C12.68355469 20.26457031 13.33195313 20.62679687 14 21 C13.6875 23.375 13.6875 23.375 13 26 C12.01 26.66 11.02 27.32 10 28 C9.57757196 31.25936585 9.56008592 34.45364335 9.50390625 37.73828125 C8.90615755 41.60742984 7.76879543 43.27676062 5 46 C2.25 46.3125 2.25 46.3125 0 46 C0 44.35 0 42.7 0 41 C1.98 40.505 1.98 40.505 4 40 C3.97679687 39.03578125 3.95359375 38.0715625 3.9296875 37.078125 C3.91164062 35.81484375 3.89359375 34.5515625 3.875 33.25 C3.85179687 31.99703125 3.82859375 30.7440625 3.8046875 29.453125 C3.98462698 26.27179508 4.31001418 24.63478104 6 22 C5.34 21.34 4.68 20.68 4 20 C3.69940057 17.63490639 3.50484988 15.25558119 3.375 12.875 C3.30023438 11.59367187 3.22546875 10.31234375 3.1484375 8.9921875 C3.09945312 8.00476563 3.05046875 7.01734375 3 6 C2.01 5.67 1.02 5.34 0 5 C0 3.35 0 1.7 0 0 Z " fill="#EDECED" transform="translate(145,102)"/>
<path d="M0 0 C0 1.65 0 3.3 0 5 C-1.32 5.33 -2.64 5.66 -4 6 C-3.98839844 6.98742187 -3.97679688 7.97484375 -3.96484375 8.9921875 C-3.95582031 10.27351563 -3.94679688 11.55484375 -3.9375 12.875 C-3.92589844 14.15117188 -3.91429688 15.42734375 -3.90234375 16.7421875 C-4 20 -4 20 -5 22 C-5.66 22 -6.32 22 -7 22 C-6.51917969 22.51046875 -6.03835937 23.0209375 -5.54296875 23.546875 C-3.48262506 26.82256066 -3.49039226 29.40752719 -3.3125 33.25 C-3.24675781 34.51328125 -3.18101563 35.7765625 -3.11328125 37.078125 C-3.07589844 38.04234375 -3.03851563 39.0065625 -3 40 C-2.01 40.33 -1.02 40.66 0 41 C0 42.65 0 44.3 0 46 C-2.8125 45.8125 -2.8125 45.8125 -6 45 C-9.51542424 40.43323393 -9.39088306 36.40198217 -9.49609375 30.83984375 C-10.1107534 27.37583159 -11.33658121 26.20804302 -14 24 C-12.84826645 21.53199953 -11.95216435 19.95216435 -10 18 C-9.82528152 15.90051399 -9.73282148 13.79375592 -9.6875 11.6875 C-9.23343721 4.35762927 -9.23343721 4.35762927 -6.6875 1.6875 C-4 0 -4 0 0 0 Z " fill="#ECECEE" transform="translate(111,102)"/>
<path d="M0 0 C5.625 -0.25 5.625 -0.25 9 2 C9.375 5 9.375 5 9 8 C5.5647952 10.29013653 4.014669 10.17842973 0 10 C0 6.7 0 3.4 0 0 Z " fill="#EDEDED" transform="translate(286,107)"/>
<path d="M0 0 C0.66 0 1.32 0 2 0 C2.66 3.63 3.32 7.26 4 11 C2.02 11 0.04 11 -2 11 C-1.34 7.37 -0.68 3.74 0 0 Z " fill="#DDDDDD" transform="translate(259,112)"/>
</svg>
